<mxfile host="app.diagrams.net" modified="2023-04-21T03:20:11.977Z" agent="Mozilla/5.0 (Windows NT 10.0; Win64; x64) AppleWebKit/537.36 (KHTML, like Gecko) Chrome/111.0.0.0 Safari/537.36" etag="hQ74yjxiO5n-XC7AJ5eC" version="21.1.8" type="github">
  <diagram name="Page-1" id="ePC4llB7066OcK3Vymhm">
    <mxGraphModel dx="1050" dy="549" grid="1" gridSize="10" guides="1" tooltips="1" connect="1" arrows="1" fold="1" page="1" pageScale="1" pageWidth="850" pageHeight="1100" math="0" shadow="0">
      <root>
        <mxCell id="0" />
        <mxCell id="1" parent="0" />
        <mxCell id="N_MZvMbOPuBCRh4dBad3-1" value="1" style="rounded=0;whiteSpace=wrap;html=1;fillColor=#ffe6cc;strokeColor=#d79b00;" vertex="1" parent="1">
          <mxGeometry x="230" y="40" width="30" height="30" as="geometry" />
        </mxCell>
        <mxCell id="N_MZvMbOPuBCRh4dBad3-2" value="2" style="rounded=0;whiteSpace=wrap;html=1;fillColor=#dae8fc;strokeColor=#6c8ebf;" vertex="1" parent="1">
          <mxGeometry x="290" y="40" width="30" height="30" as="geometry" />
        </mxCell>
        <mxCell id="N_MZvMbOPuBCRh4dBad3-3" value="3" style="rounded=0;whiteSpace=wrap;html=1;fillColor=#e1d5e7;strokeColor=#9673a6;" vertex="1" parent="1">
          <mxGeometry x="320" y="40" width="30" height="30" as="geometry" />
        </mxCell>
        <mxCell id="N_MZvMbOPuBCRh4dBad3-4" value="4" style="rounded=0;whiteSpace=wrap;html=1;fillColor=#fff2cc;strokeColor=#d6b656;" vertex="1" parent="1">
          <mxGeometry x="350" y="40" width="30" height="30" as="geometry" />
        </mxCell>
        <mxCell id="N_MZvMbOPuBCRh4dBad3-5" value="5" style="rounded=0;whiteSpace=wrap;html=1;fillColor=#ffe6cc;strokeColor=#d79b00;" vertex="1" parent="1">
          <mxGeometry x="380" y="40" width="30" height="30" as="geometry" />
        </mxCell>
        <mxCell id="N_MZvMbOPuBCRh4dBad3-6" value="6" style="rounded=0;whiteSpace=wrap;html=1;fillColor=#ffe6cc;strokeColor=#d79b00;" vertex="1" parent="1">
          <mxGeometry x="410" y="40" width="30" height="30" as="geometry" />
        </mxCell>
        <mxCell id="N_MZvMbOPuBCRh4dBad3-8" value="7" style="rounded=0;whiteSpace=wrap;html=1;fillColor=#e1d5e7;strokeColor=#9673a6;" vertex="1" parent="1">
          <mxGeometry x="440" y="40" width="30" height="30" as="geometry" />
        </mxCell>
        <mxCell id="N_MZvMbOPuBCRh4dBad3-9" value="9" style="rounded=0;whiteSpace=wrap;html=1;fillColor=#fff2cc;strokeColor=#d6b656;" vertex="1" parent="1">
          <mxGeometry x="530" y="40" width="30" height="30" as="geometry" />
        </mxCell>
        <mxCell id="N_MZvMbOPuBCRh4dBad3-10" value="" style="rounded=0;whiteSpace=wrap;html=1;" vertex="1" parent="1">
          <mxGeometry x="260" y="40" width="30" height="30" as="geometry" />
        </mxCell>
        <mxCell id="N_MZvMbOPuBCRh4dBad3-11" value="" style="rounded=0;whiteSpace=wrap;html=1;" vertex="1" parent="1">
          <mxGeometry x="500" y="40" width="30" height="30" as="geometry" />
        </mxCell>
        <mxCell id="N_MZvMbOPuBCRh4dBad3-12" value="8" style="rounded=0;whiteSpace=wrap;html=1;fillColor=#e1d5e7;strokeColor=#9673a6;" vertex="1" parent="1">
          <mxGeometry x="470" y="40" width="30" height="30" as="geometry" />
        </mxCell>
        <mxCell id="N_MZvMbOPuBCRh4dBad3-14" value="&lt;font style=&quot;font-size: 16px;&quot;&gt;CE生成的请求队列&lt;/font&gt;" style="text;html=1;strokeColor=none;fillColor=none;align=center;verticalAlign=middle;whiteSpace=wrap;rounded=0;" vertex="1" parent="1">
          <mxGeometry x="60" y="40" width="160" height="30" as="geometry" />
        </mxCell>
        <mxCell id="N_MZvMbOPuBCRh4dBad3-47" value="&lt;font style=&quot;font-size: 20px;&quot;&gt;CE维护的&lt;br&gt;请求队列&lt;/font&gt;" style="text;html=1;strokeColor=default;fillColor=none;align=left;verticalAlign=middle;whiteSpace=wrap;rounded=0;" vertex="1" parent="1">
          <mxGeometry x="50" y="100" width="690" height="340" as="geometry" />
        </mxCell>
        <mxCell id="N_MZvMbOPuBCRh4dBad3-85" value="&lt;font style=&quot;font-size: 18px;&quot;&gt;SE1&lt;/font&gt;" style="text;html=1;strokeColor=default;fillColor=none;align=left;verticalAlign=middle;whiteSpace=wrap;rounded=0;" vertex="1" parent="1">
          <mxGeometry x="70" y="515" width="220" height="300" as="geometry" />
        </mxCell>
        <mxCell id="N_MZvMbOPuBCRh4dBad3-86" value="&lt;font style=&quot;font-size: 18px;&quot;&gt;SE2&lt;/font&gt;" style="text;html=1;strokeColor=default;fillColor=none;align=left;verticalAlign=middle;whiteSpace=wrap;rounded=0;" vertex="1" parent="1">
          <mxGeometry x="315" y="515" width="220" height="300" as="geometry" />
        </mxCell>
        <mxCell id="N_MZvMbOPuBCRh4dBad3-87" value="1" style="rounded=0;whiteSpace=wrap;html=1;fillColor=#ffe6cc;strokeColor=#d79b00;" vertex="1" parent="1">
          <mxGeometry x="425" y="765" width="30" height="30" as="geometry" />
        </mxCell>
        <mxCell id="N_MZvMbOPuBCRh4dBad3-88" value="2" style="rounded=0;whiteSpace=wrap;html=1;fillColor=#dae8fc;strokeColor=#6c8ebf;" vertex="1" parent="1">
          <mxGeometry x="425" y="735" width="30" height="30" as="geometry" />
        </mxCell>
        <mxCell id="N_MZvMbOPuBCRh4dBad3-89" value="3" style="rounded=0;whiteSpace=wrap;html=1;fillColor=#e1d5e7;strokeColor=#9673a6;" vertex="1" parent="1">
          <mxGeometry x="425" y="705" width="30" height="30" as="geometry" />
        </mxCell>
        <mxCell id="N_MZvMbOPuBCRh4dBad3-90" value="4" style="rounded=0;whiteSpace=wrap;html=1;fillColor=#fff2cc;strokeColor=#d6b656;" vertex="1" parent="1">
          <mxGeometry x="425" y="675" width="30" height="30" as="geometry" />
        </mxCell>
        <mxCell id="N_MZvMbOPuBCRh4dBad3-91" value="5" style="rounded=0;whiteSpace=wrap;html=1;fillColor=#ffe6cc;strokeColor=#d79b00;" vertex="1" parent="1">
          <mxGeometry x="425" y="645" width="30" height="30" as="geometry" />
        </mxCell>
        <mxCell id="N_MZvMbOPuBCRh4dBad3-92" value="6" style="rounded=0;whiteSpace=wrap;html=1;fillColor=#ffe6cc;strokeColor=#d79b00;" vertex="1" parent="1">
          <mxGeometry x="425" y="615" width="30" height="30" as="geometry" />
        </mxCell>
        <mxCell id="N_MZvMbOPuBCRh4dBad3-93" value="7" style="rounded=0;whiteSpace=wrap;html=1;fillColor=#e1d5e7;strokeColor=#9673a6;" vertex="1" parent="1">
          <mxGeometry x="425" y="585" width="30" height="30" as="geometry" />
        </mxCell>
        <mxCell id="N_MZvMbOPuBCRh4dBad3-94" value="8" style="rounded=0;whiteSpace=wrap;html=1;fillColor=#e1d5e7;strokeColor=#9673a6;" vertex="1" parent="1">
          <mxGeometry x="425" y="555" width="30" height="30" as="geometry" />
        </mxCell>
        <mxCell id="N_MZvMbOPuBCRh4dBad3-95" value="3" style="rounded=0;whiteSpace=wrap;html=1;fillColor=#e1d5e7;strokeColor=#9673a6;" vertex="1" parent="1">
          <mxGeometry x="485" y="705" width="30" height="30" as="geometry" />
        </mxCell>
        <mxCell id="N_MZvMbOPuBCRh4dBad3-96" value="7" style="rounded=0;whiteSpace=wrap;html=1;fillColor=#e1d5e7;strokeColor=#9673a6;" vertex="1" parent="1">
          <mxGeometry x="485" y="675" width="30" height="30" as="geometry" />
        </mxCell>
        <mxCell id="N_MZvMbOPuBCRh4dBad3-97" value="8" style="rounded=0;whiteSpace=wrap;html=1;fillColor=#e1d5e7;strokeColor=#9673a6;" vertex="1" parent="1">
          <mxGeometry x="485" y="645" width="30" height="30" as="geometry" />
        </mxCell>
        <mxCell id="N_MZvMbOPuBCRh4dBad3-98" value="&lt;font style=&quot;font-size: 18px;&quot;&gt;SE3&lt;/font&gt;" style="text;html=1;strokeColor=default;fillColor=none;align=left;verticalAlign=middle;whiteSpace=wrap;rounded=0;" vertex="1" parent="1">
          <mxGeometry x="565" y="515" width="220" height="300" as="geometry" />
        </mxCell>
        <mxCell id="N_MZvMbOPuBCRh4dBad3-99" value="1" style="rounded=0;whiteSpace=wrap;html=1;fillColor=#ffe6cc;strokeColor=#d79b00;" vertex="1" parent="1">
          <mxGeometry x="660" y="765" width="30" height="30" as="geometry" />
        </mxCell>
        <mxCell id="N_MZvMbOPuBCRh4dBad3-100" value="2" style="rounded=0;whiteSpace=wrap;html=1;fillColor=#dae8fc;strokeColor=#6c8ebf;" vertex="1" parent="1">
          <mxGeometry x="660" y="735" width="30" height="30" as="geometry" />
        </mxCell>
        <mxCell id="N_MZvMbOPuBCRh4dBad3-101" value="3" style="rounded=0;whiteSpace=wrap;html=1;fillColor=#e1d5e7;strokeColor=#9673a6;" vertex="1" parent="1">
          <mxGeometry x="660" y="705" width="30" height="30" as="geometry" />
        </mxCell>
        <mxCell id="N_MZvMbOPuBCRh4dBad3-107" value="3" style="rounded=0;whiteSpace=wrap;html=1;fillColor=#e1d5e7;strokeColor=#9673a6;" vertex="1" parent="1">
          <mxGeometry x="720" y="705" width="30" height="30" as="geometry" />
        </mxCell>
        <mxCell id="N_MZvMbOPuBCRh4dBad3-110" value="10" style="rounded=0;whiteSpace=wrap;html=1;fillColor=#ffe6cc;strokeColor=#d79b00;" vertex="1" parent="1">
          <mxGeometry x="560" y="40" width="30" height="30" as="geometry" />
        </mxCell>
        <mxCell id="N_MZvMbOPuBCRh4dBad3-111" value="11" style="rounded=0;whiteSpace=wrap;html=1;fillColor=#ffe6cc;strokeColor=#d79b00;" vertex="1" parent="1">
          <mxGeometry x="590" y="40" width="30" height="30" as="geometry" />
        </mxCell>
        <mxCell id="N_MZvMbOPuBCRh4dBad3-112" value="" style="rounded=0;whiteSpace=wrap;html=1;" vertex="1" parent="1">
          <mxGeometry x="620" y="40" width="30" height="30" as="geometry" />
        </mxCell>
        <mxCell id="N_MZvMbOPuBCRh4dBad3-117" value="&lt;b style=&quot;border-color: var(--border-color);&quot;&gt;已处理的请求&lt;/b&gt;" style="text;html=1;strokeColor=none;fillColor=none;align=center;verticalAlign=middle;whiteSpace=wrap;rounded=0;" vertex="1" parent="1">
          <mxGeometry x="80" y="600" width="80" height="30" as="geometry" />
        </mxCell>
        <mxCell id="N_MZvMbOPuBCRh4dBad3-118" value="&lt;b style=&quot;border-color: var(--border-color);&quot;&gt;存储的请求&lt;/b&gt;" style="text;html=1;strokeColor=none;fillColor=none;align=center;verticalAlign=middle;whiteSpace=wrap;rounded=0;" vertex="1" parent="1">
          <mxGeometry x="205" y="600" width="80" height="30" as="geometry" />
        </mxCell>
        <mxCell id="N_MZvMbOPuBCRh4dBad3-119" value="&lt;b style=&quot;border-color: var(--border-color);&quot;&gt;已处理的请求&lt;/b&gt;" style="text;html=1;strokeColor=none;fillColor=none;align=center;verticalAlign=middle;whiteSpace=wrap;rounded=0;" vertex="1" parent="1">
          <mxGeometry x="580" y="720" width="80" height="30" as="geometry" />
        </mxCell>
        <mxCell id="N_MZvMbOPuBCRh4dBad3-120" value="&lt;b style=&quot;border-color: var(--border-color);&quot;&gt;存储的请求&lt;/b&gt;" style="text;html=1;strokeColor=none;fillColor=none;align=center;verticalAlign=middle;whiteSpace=wrap;rounded=0;" vertex="1" parent="1">
          <mxGeometry x="460" y="600" width="80" height="30" as="geometry" />
        </mxCell>
        <mxCell id="N_MZvMbOPuBCRh4dBad3-122" value="&lt;b style=&quot;border-color: var(--border-color);&quot;&gt;已处理的请求&lt;/b&gt;" style="text;html=1;strokeColor=none;fillColor=none;align=center;verticalAlign=middle;whiteSpace=wrap;rounded=0;" vertex="1" parent="1">
          <mxGeometry x="340" y="610" width="80" height="30" as="geometry" />
        </mxCell>
        <mxCell id="N_MZvMbOPuBCRh4dBad3-123" value="&lt;b style=&quot;border-color: var(--border-color);&quot;&gt;存储的请求&lt;/b&gt;" style="text;html=1;strokeColor=none;fillColor=none;align=center;verticalAlign=middle;whiteSpace=wrap;rounded=0;" vertex="1" parent="1">
          <mxGeometry x="695" y="660" width="80" height="30" as="geometry" />
        </mxCell>
        <mxCell id="N_MZvMbOPuBCRh4dBad3-49" value="图层1" style="" parent="0" />
        <mxCell id="N_MZvMbOPuBCRh4dBad3-50" value="1" style="rounded=0;whiteSpace=wrap;html=1;fillColor=#ffe6cc;strokeColor=#d79b00;" vertex="1" parent="N_MZvMbOPuBCRh4dBad3-49">
          <mxGeometry x="170" y="770" width="30" height="30" as="geometry" />
        </mxCell>
        <mxCell id="N_MZvMbOPuBCRh4dBad3-51" value="2" style="rounded=0;whiteSpace=wrap;html=1;fillColor=#dae8fc;strokeColor=#6c8ebf;" vertex="1" parent="N_MZvMbOPuBCRh4dBad3-49">
          <mxGeometry x="170" y="740" width="30" height="30" as="geometry" />
        </mxCell>
        <mxCell id="N_MZvMbOPuBCRh4dBad3-52" value="3" style="rounded=0;whiteSpace=wrap;html=1;fillColor=#e1d5e7;strokeColor=#9673a6;" vertex="1" parent="N_MZvMbOPuBCRh4dBad3-49">
          <mxGeometry x="170" y="710" width="30" height="30" as="geometry" />
        </mxCell>
        <mxCell id="N_MZvMbOPuBCRh4dBad3-53" value="4" style="rounded=0;whiteSpace=wrap;html=1;fillColor=#fff2cc;strokeColor=#d6b656;" vertex="1" parent="N_MZvMbOPuBCRh4dBad3-49">
          <mxGeometry x="170" y="680" width="30" height="30" as="geometry" />
        </mxCell>
        <mxCell id="N_MZvMbOPuBCRh4dBad3-54" value="5" style="rounded=0;whiteSpace=wrap;html=1;fillColor=#ffe6cc;strokeColor=#d79b00;" vertex="1" parent="N_MZvMbOPuBCRh4dBad3-49">
          <mxGeometry x="170" y="650" width="30" height="30" as="geometry" />
        </mxCell>
        <mxCell id="N_MZvMbOPuBCRh4dBad3-55" value="6" style="rounded=0;whiteSpace=wrap;html=1;fillColor=#ffe6cc;strokeColor=#d79b00;" vertex="1" parent="N_MZvMbOPuBCRh4dBad3-49">
          <mxGeometry x="170" y="620" width="30" height="30" as="geometry" />
        </mxCell>
        <mxCell id="N_MZvMbOPuBCRh4dBad3-56" value="7" style="rounded=0;whiteSpace=wrap;html=1;fillColor=#e1d5e7;strokeColor=#9673a6;" vertex="1" parent="N_MZvMbOPuBCRh4dBad3-49">
          <mxGeometry x="170" y="590" width="30" height="30" as="geometry" />
        </mxCell>
        <mxCell id="N_MZvMbOPuBCRh4dBad3-113" value="" style="edgeStyle=orthogonalEdgeStyle;rounded=0;orthogonalLoop=1;jettySize=auto;html=1;entryX=0.5;entryY=0;entryDx=0;entryDy=0;" edge="1" parent="N_MZvMbOPuBCRh4dBad3-49" source="N_MZvMbOPuBCRh4dBad3-57" target="N_MZvMbOPuBCRh4dBad3-85">
          <mxGeometry relative="1" as="geometry" />
        </mxCell>
        <mxCell id="N_MZvMbOPuBCRh4dBad3-57" value="9" style="rounded=0;whiteSpace=wrap;html=1;fillColor=#fff2cc;strokeColor=#d6b656;" vertex="1" parent="N_MZvMbOPuBCRh4dBad3-49">
          <mxGeometry x="165" y="380" width="30" height="30" as="geometry" />
        </mxCell>
        <mxCell id="N_MZvMbOPuBCRh4dBad3-58" value="8" style="rounded=0;whiteSpace=wrap;html=1;fillColor=#e1d5e7;strokeColor=#9673a6;" vertex="1" parent="N_MZvMbOPuBCRh4dBad3-49">
          <mxGeometry x="170" y="560" width="30" height="30" as="geometry" />
        </mxCell>
        <mxCell id="N_MZvMbOPuBCRh4dBad3-114" value="" style="edgeStyle=orthogonalEdgeStyle;rounded=0;orthogonalLoop=1;jettySize=auto;html=1;entryX=0.5;entryY=0;entryDx=0;entryDy=0;" edge="1" parent="N_MZvMbOPuBCRh4dBad3-49" source="N_MZvMbOPuBCRh4dBad3-66" target="N_MZvMbOPuBCRh4dBad3-86">
          <mxGeometry relative="1" as="geometry" />
        </mxCell>
        <mxCell id="N_MZvMbOPuBCRh4dBad3-66" value="9" style="rounded=0;whiteSpace=wrap;html=1;fillColor=#fff2cc;strokeColor=#d6b656;" vertex="1" parent="N_MZvMbOPuBCRh4dBad3-49">
          <mxGeometry x="410" y="380" width="30" height="30" as="geometry" />
        </mxCell>
        <mxCell id="N_MZvMbOPuBCRh4dBad3-71" value="4" style="rounded=0;whiteSpace=wrap;html=1;fillColor=#fff2cc;strokeColor=#d6b656;" vertex="1" parent="N_MZvMbOPuBCRh4dBad3-49">
          <mxGeometry x="660" y="230" width="30" height="30" as="geometry" />
        </mxCell>
        <mxCell id="N_MZvMbOPuBCRh4dBad3-72" value="5" style="rounded=0;whiteSpace=wrap;html=1;fillColor=#ffe6cc;strokeColor=#d79b00;" vertex="1" parent="N_MZvMbOPuBCRh4dBad3-49">
          <mxGeometry x="660" y="260" width="30" height="30" as="geometry" />
        </mxCell>
        <mxCell id="N_MZvMbOPuBCRh4dBad3-73" value="6" style="rounded=0;whiteSpace=wrap;html=1;fillColor=#ffe6cc;strokeColor=#d79b00;" vertex="1" parent="N_MZvMbOPuBCRh4dBad3-49">
          <mxGeometry x="660" y="290" width="30" height="30" as="geometry" />
        </mxCell>
        <mxCell id="N_MZvMbOPuBCRh4dBad3-74" value="7" style="rounded=0;whiteSpace=wrap;html=1;fillColor=#e1d5e7;strokeColor=#9673a6;" vertex="1" parent="N_MZvMbOPuBCRh4dBad3-49">
          <mxGeometry x="660" y="320" width="30" height="30" as="geometry" />
        </mxCell>
        <mxCell id="N_MZvMbOPuBCRh4dBad3-115" value="" style="edgeStyle=orthogonalEdgeStyle;rounded=0;orthogonalLoop=1;jettySize=auto;html=1;entryX=0.5;entryY=0;entryDx=0;entryDy=0;" edge="1" parent="N_MZvMbOPuBCRh4dBad3-49" source="N_MZvMbOPuBCRh4dBad3-75" target="N_MZvMbOPuBCRh4dBad3-98">
          <mxGeometry relative="1" as="geometry">
            <mxPoint x="675" y="555" as="targetPoint" />
          </mxGeometry>
        </mxCell>
        <mxCell id="N_MZvMbOPuBCRh4dBad3-75" value="9" style="rounded=0;whiteSpace=wrap;html=1;fillColor=#fff2cc;strokeColor=#d6b656;" vertex="1" parent="N_MZvMbOPuBCRh4dBad3-49">
          <mxGeometry x="660" y="380" width="30" height="30" as="geometry" />
        </mxCell>
        <mxCell id="N_MZvMbOPuBCRh4dBad3-76" value="8" style="rounded=0;whiteSpace=wrap;html=1;fillColor=#e1d5e7;strokeColor=#9673a6;" vertex="1" parent="N_MZvMbOPuBCRh4dBad3-49">
          <mxGeometry x="660" y="350" width="30" height="30" as="geometry" />
        </mxCell>
        <mxCell id="N_MZvMbOPuBCRh4dBad3-48" value="图层2" style="" parent="0" />
        <mxCell id="N_MZvMbOPuBCRh4dBad3-80" value="3" style="rounded=0;whiteSpace=wrap;html=1;fillColor=#e1d5e7;strokeColor=#9673a6;" vertex="1" parent="N_MZvMbOPuBCRh4dBad3-48">
          <mxGeometry x="230" y="710" width="30" height="30" as="geometry" />
        </mxCell>
        <mxCell id="N_MZvMbOPuBCRh4dBad3-81" value="7" style="rounded=0;whiteSpace=wrap;html=1;fillColor=#e1d5e7;strokeColor=#9673a6;" vertex="1" parent="N_MZvMbOPuBCRh4dBad3-48">
          <mxGeometry x="230" y="680" width="30" height="30" as="geometry" />
        </mxCell>
        <mxCell id="N_MZvMbOPuBCRh4dBad3-82" value="8" style="rounded=0;whiteSpace=wrap;html=1;fillColor=#e1d5e7;strokeColor=#9673a6;" vertex="1" parent="N_MZvMbOPuBCRh4dBad3-48">
          <mxGeometry x="230" y="650" width="30" height="30" as="geometry" />
        </mxCell>
      </root>
    </mxGraphModel>
  </diagram>
</mxfile>
